<?xml version="1.0" encoding="UTF-8"?>
<svg id="Layer_1" data-name="Layer 1" xmlns="http://www.w3.org/2000/svg" version="1.1" viewBox="0 0 300 200">
  <defs>
    <style>
      .cls-1 {
        fill: #fff;
      }

      .cls-1, .cls-2 {
        stroke-width: 0px;
      }

      .cls-2 {
        fill: #cc2128;
      }
    </style>
  </defs>
  <path class="cls-2" d="M247.3,178.8c17.4-1.9,31.1-7.5,35.8-14.5,8.4-12.8,8.4-64.3,8.4-64.3,0,0,0-51.5-8.4-64.3-4.7-7.1-18.3-12.7-35.8-14.5-31.5-3.4-97.3-3.4-97.3-3.4,0,0-65.8,0-97.3,3.4-17.4,1.9-31.1,7.5-35.8,14.5-8.4,12.8-8.4,64.3-8.4,64.3,0,0,0,51.5,8.4,64.3,4.7,7.1,18.3,12.7,35.8,14.5,31.5,3.4,97.3,3.4,97.3,3.4,0,0,65.8,0,97.3-3.4Z"/>
  <g>
    <polygon class="cls-1" points="29 84.1 53.7 115.9 78.4 84.1 29 84.1"/>
    <g>
      <path class="cls-1" d="M82.6,115.9v-31.5h7v31.5h-7Z"/>
      <path class="cls-1" d="M95.5,115.9v-31.5h11.4c3.4,0,6.2.7,8.4,2.1,2.3,1.4,4,3.3,5.1,5.7,1.1,2.4,1.7,5,1.7,7.9s-.6,6-1.9,8.3c-1.3,2.4-3,4.2-5.3,5.5-2.3,1.3-4.9,2-8,2h-11.4ZM114.9,100.1c0-1.8-.3-3.5-.9-4.9-.6-1.4-1.5-2.5-2.8-3.3-1.2-.8-2.7-1.2-4.3-1.2h-4.3v18.7h4.3c1.7,0,3.2-.4,4.4-1.2,1.2-.8,2.1-1.9,2.7-3.4.6-1.4.9-3,.9-4.8Z"/>
      <path class="cls-1" d="M144.4,93.6c0,0-.4-.3-.9-.6-.5-.3-1.2-.7-1.9-1-.8-.4-1.6-.7-2.5-.9-.9-.3-1.8-.4-2.8-.4s-2.1.2-2.8.7c-.7.4-1,1.1-1,1.9s.3,1.2.8,1.7c.5.4,1.2.8,2.2,1.1s2.1.7,3.5,1c1.9.6,3.6,1.2,5.1,2,1.4.7,2.5,1.7,3.3,2.9.8,1.2,1.1,2.7,1.1,4.7s-.3,3.2-.9,4.5c-.6,1.2-1.5,2.2-2.6,3-1.1.7-2.3,1.3-3.7,1.6s-2.8.5-4.2.5-3-.2-4.6-.5c-1.6-.3-3.1-.8-4.5-1.4-1.4-.6-2.8-1.3-4-2l3.1-6.4c.1.2.5.5,1.2.8.6.4,1.4.8,2.3,1.2.9.4,2,.8,3.1,1.2,1.1.3,2.3.5,3.4.5s2.2-.2,2.9-.6c.6-.4.9-1,.9-1.7s-.3-1.4-1-1.8c-.6-.5-1.5-.9-2.6-1.2-1.1-.4-2.4-.8-3.8-1.2-1.9-.6-3.4-1.3-4.6-2-1.2-.7-2.1-1.6-2.7-2.7-.6-1.1-.9-2.4-.9-3.9,0-2.2.5-4.1,1.5-5.6,1-1.5,2.4-2.7,4.1-3.4,1.7-.8,3.6-1.2,5.6-1.2s2.9.2,4.2.5c1.3.4,2.6.8,3.7,1.3,1.2.5,2.2,1.1,3.1,1.6l-3.1,6Z"/>
      <path class="cls-1" d="M150.8,99.8c0-1.9.3-3.8,1-5.6.7-1.8,1.7-3.5,3-5.1,1.3-1.5,2.9-2.7,4.8-3.6,1.9-.9,4-1.4,6.4-1.4s5.4.6,7.5,1.9c2.1,1.3,3.7,2.9,4.7,5l-5.5,4c-.4-1.1-1-2-1.8-2.6-.8-.6-1.6-1.1-2.5-1.3-.9-.3-1.8-.4-2.6-.4-1.3,0-2.5.3-3.5.8-1,.5-1.8,1.3-2.5,2.2-.7.9-1.2,1.9-1.5,3.1-.3,1.1-.5,2.2-.5,3.3s.2,2.5.6,3.6c.4,1.2.9,2.2,1.6,3.1.7.9,1.5,1.6,2.5,2.1,1,.5,2.1.8,3.3.8s1.7-.1,2.6-.4c.9-.3,1.7-.7,2.5-1.4.8-.7,1.3-1.5,1.7-2.6l5.8,3.6c-.6,1.5-1.6,2.9-3,4-1.4,1.1-2.9,1.9-4.6,2.5-1.7.6-3.4.9-5.2.9s-4.2-.5-6.1-1.4c-1.8-.9-3.4-2.2-4.8-3.7-1.3-1.6-2.4-3.3-3.1-5.2-.7-1.9-1.1-3.9-1.1-5.9Z"/>
      <path class="cls-1" d="M182.1,115.9v-31.5h13.7c1.5,0,2.8.3,4,.9,1.2.6,2.3,1.4,3.2,2.4.9,1,1.6,2.1,2.1,3.4.5,1.3.8,2.6.8,3.9s-.2,2.5-.6,3.7c-.4,1.2-1,2.2-1.7,3.2-.7.9-1.6,1.7-2.6,2.3l6.7,11.7h-7.8l-5.8-10.2h-4.8v10.2h-7ZM189.2,99.3h6.5c.5,0,1-.2,1.5-.5.4-.4.8-.9,1.1-1.5.3-.7.4-1.4.4-2.2s-.2-1.7-.5-2.3c-.3-.6-.7-1.1-1.2-1.5-.5-.4-1-.5-1.5-.5h-6.2v8.6Z"/>
      <path class="cls-1" d="M210.9,115.9v-31.5h7v31.5h-7Z"/>
      <path class="cls-1" d="M223.8,115.9v-31.5h13c1.5,0,2.8.3,4,.9,1.2.6,2.3,1.4,3.2,2.4.9,1,1.6,2.1,2.1,3.4.5,1.3.7,2.6.7,3.9s-.4,3.5-1.2,5.1c-.8,1.6-1.9,3-3.4,4-1.4,1-3.1,1.5-5.1,1.5h-6.2v10.2h-7ZM230.8,99.3h5.8c.5,0,1-.2,1.5-.5.4-.3.8-.8,1.1-1.4.3-.7.4-1.4.4-2.4s-.2-1.8-.5-2.5c-.3-.6-.7-1.1-1.2-1.4-.5-.3-1-.4-1.6-.4h-5.5v8.6Z"/>
      <path class="cls-1" d="M273.8,90.7h-9.3v25.1h-7v-25.1h-9.3v-6.4h25.7v6.4Z"/>
    </g>
  </g>
</svg>